<svg class="dibc1ls4eti dibl1enax8i" xmlns="http://www.w3.org/2000/svg" viewBox="0 0 52.9 79.6" fill="currentColor"><path d="M26.4 79.5c12.3 0 17.5-1.9 21.4-8 3.6-5.8 5.2-13.2 5.2-31.8s-1.6-26-5.2-31.8c-3.9-6-9-7.9-21.3-7.9h.2C14.2 0 9.1 1.9 5.2 7.9 1.6 13.8 0 21.2 0 39.8s1.6 26 5.2 31.8c3.9 6 9 8 21.3 8zm.2-2.2c-10.7 0-15.4-1.2-18.5-6.5s-3.7-13-3.7-31 .5-25.8 3.7-31 7.8-6.4 18.5-6.4h-.2c10.7 0 15.4 1.2 18.5 6.4s3.7 13 3.7 31.1c0 18-.5 25.8-3.7 31.1s-7.8 6.5-18.5 6.5z"/><path d="M15.4 52.8c-1 .1-1.7.9-1.6 1.9.1.9.8 1.6 1.6 1.6 1 .1 1.8-.7 1.9-1.6.1-1-.7-1.8-1.6-1.9zm10.8-40.1c0-.5-.4-.9-.9-.9s-1 .4-1.1.9c0 .6.4 1.1 1 1.1.6-.1 1-.6 1-1.1"/><path d="M29.6 33.6c-3.5-1.8-4.3-3.6-4.3-5.9 0-5.1 5-9.2 5-13.5 0-2.8-2-4.7-5.2-4.7-.7 0-1.5.2-2.1.6-1.8-.4-7.5-1.5-8.6-1.7 0-.1-.1.1 0 .1.4.2 6.9 3.2 8.1 4.3.1.1.5.6.6.6s.2-.1.2-.4c-.1-.2-.1-.4-.1-.6.1-1.1 1-1.8 2.1-1.8h.1c1.9-.1 3.5 1.4 3.6 3.3v.1c0 1.9-1.4 4.1-1.9 4.1-.1 0-.2-.1-.2-.1 0-.5.3-1.3.3-1.9 0-.9-.3-1.9-2-1.9h-.4c-.1.1.1.1.2.1.3 0 .7.6.7 1.4 0 4.6-8.3 12.6-8.3 17.3 0 7.2 8.2 13.4 11.2 15.3.2.1.4.4.3.7 0 .1-.2.7-.5.7H16.3c-1.1 0-2.2.2-3.2.6-.8.6-1.5 1.3-2 2.2-.1 1.2.1 2.4.7 3.4.4.6 1.2.3.8-.1q-.3-.75-.3-1.5c-.1-1.7 1.2-3.1 2.9-3.2s3.1 1.2 3.2 2.9v.3c0 .2.2.4.3.5.6 0 .6-.6.6-.9 0-.8-.6-1.6-.6-2.2 0-.4.2-.6 1.1-.6 2.3 0 9.1 1.1 9.8 1.1s1.3-2 1.9-2 2.6 6.5 2.6 7.3v1.1c0 .7.4 1.2.1 1.9-2.9 7.4-3.4 9.2-3.4 9.2-.6 1.4-6.5 1.5-7.9 1.5-.9 0-1.5.6-1.5.9s0 .4.2.4c3-.5 6.1-.7 9.2-.6 1 .1 2 .2 3 .5.1 0 .2-.2.2-.3 0-.7-2.7-.8-2.2-2 0 0 .4-.6 4.1-9.4.3-.6.4-1.2.5-1.8-.2-.9-.5-1.7-.8-2.6-.3-1.4-.6-2.8-.7-4.2h.2c1.3 0 2.7 2.8 2.9 3.9.2.8 1.1.8 1.8 1v1.2c0 .5.8.6 1.3.6s.6-3.2.6-3.6c-.1-8.4-4.4-17.7-12.1-21.6"/></svg>