<svg width="512" height="142.224" viewBox="0 0 512 142.224" fill="none" xmlns="http://www.w3.org/2000/svg"><path d="M409.44 103.556c-2.628 14.336-15.52 30.36-40.58 30.36s-43.936-17.16-43.936-45.076c0-26.216 19.816-43.568 42.808-43.568 24.12 0 41.132 16.404 41.132 40.372a68 68 0 0 1-.56 9.992h-60.956c2.056 13.196 10.476 19.248 21.872 19.248 11.408 0 16.08-5.848 17.012-11.32h23.184zm-62.084-22.452h39.072c-.928-11.88-8.04-17.732-18.508-17.732s-18.328 5.48-20.576 17.732zm-205.284 50.924V0h22.064v132.032zm40.476-115.056c0-7.728 6.732-13.948 14.584-13.948s14.592 6.22 14.592 13.948-6.92 14.336-14.584 14.336a14.47 14.47 0 0 1-14.584-14.336m3.556 30.188h22.064v84.86h-22.064zM309.78 80.536v51.484h-22.064v-49.4c0-12.072-5.804-18.108-16.64-18.108A20.84 20.84 0 0 0 252.2 76.584v55.456h-22.084V47.16h22.092v14.896c2.248-7.168 10.656-16.784 25.98-16.784 17.588 0 31.604 11.7 31.604 35.272zM509.508 47.16v84.86h-22.064v-11.5c-2.056 5.28-10.468 13.396-25.8 13.396-18.328 0-38.704-12.44-38.704-44.324s20.384-44.324 38.704-44.324c15.332 0 23.74 8.108 25.8 13.388V47.152h22.064m-22.064 27.924c-2.056-4.332-9.34-10.932-20.184-10.932s-20.944 6.788-20.944 25.456 10.096 25.468 20.956 25.468c10.836 0 18.128-6.788 20.176-11.132zM95.612 102.6l10.288 29.428h24.872L82.888 0H54.28L6.24 132.032H31.1L41.176 102.6h-8.468V81.864h15.576L68.12 23.96l20.244 57.904h15.74V102.6z" fill="#000"/><path opacity=".5" d="M104.088 81.864H32.692V102.6h71.396z" fill="#000"/></svg>