<svg xmlns="http://www.w3.org/2000/svg" width="1061" height="404" style="shape-rendering:geometricPrecision;text-rendering:geometricPrecision;image-rendering:optimizeQuality;fill-rule:evenodd;clip-rule:evenodd"><path style="opacity:.973" fill="#5cc032" d="M630.5-.5h11q7.314 5.613 8.5 15a404 404 0 0 0 3 40q.582 1.392 2 2 11.751-4.84 23.5-10 6.257 8.513 9.5 19 1.272 3.561 4 6A1933 1933 0 0 1 726.5 42q11.875-6.414 20.5 3.5 5.445 14.365 12 28 6.702 19.285-13.5 21.5a2274 2274 0 0 1-42 4l-1 1a301 301 0 0 1 11 26.5 138.6 138.6 0 0 0-26 10.5 814 814 0 0 1 31.5 36.5q4.187 11.001-4.5 18.5a618 618 0 0 0-31 13q-12.218 3.885-17.5-7.5a21263 21263 0 0 0-5.5-48q-1.834-1.671-4-.5a847 847 0 0 1-21 9.5l-2-1a228 228 0 0 1-7.5-19 21.8 21.8 0 0 0-4-5 2163 2163 0 0 1-34.5 29.5q-6.645 3.405-14 2-3.95-1.66-6-5.5a937 937 0 0 0-12.5-29q-5.85-15.958 10.5-20.5a933 933 0 0 1 43-3 9.5 9.5 0 0 0 2.5-1.5q-4.325-12.678-10.5-25l26-13a1181 1181 0 0 0-27.5-30l-5-9q-2.48-8.817 4.5-14.5a564 564 0 0 0 32-14.5m5 14q1.935.837 2.5 3a544 544 0 0 0 3 42q1.9 6.555 6.5 11.5a20.2 20.2 0 0 0 6 1.5 353 353 0 0 0 20-6q2.36 10.353 9 18.5 5.308 2.256 11 1 19.253-12.24 35-29 6.231-5.757 8.5 2.5l9.5 23a10.3 10.3 0 0 1-4 1.5 658 658 0 0 1-39 3q-6.608 1.145-12 5-6.075 5.873-2.5 13.5a164 164 0 0 0 6.5 12.5 268 268 0 0 1-17 8q-5.639 5.614-3.5 13.5a54 54 0 0 0 7 12l24 26q1.026 1.926-.5 3.5a556 556 0 0 0-26.5 11.5q-2.83-2.289-3-6a540 540 0 0 0-2-32q.129-10.992-7.5-18.5a25.7 25.7 0 0 0-5.5-1.5 81.2 81.2 0 0 0-19 7 234 234 0 0 1-7-16q-4.947-7.08-13.5-4.5a32.5 32.5 0 0 0-7 3 1253 1253 0 0 0-31 27.5q-2.318 1.428-5 1a278 278 0 0 0-11-27.5 3.65 3.65 0 0 0 1-1.5 1337 1337 0 0 1 42-3.5q8.607-1.206 14.5-7.5a25.2 25.2 0 0 0 0-10 1567 1567 0 0 0-5.5-13.5 89.7 89.7 0 0 1 16-8q5.425-4.587 4.5-11.5a40.9 40.9 0 0 0-7-13 347 347 0 0 1-25.5-29q.885-1.948 3-2.5 13.092-4.59 25-10.5"/><path style="opacity:.995" fill="#050506" d="M496.5 180.5a113 113 0 0 1 15 .5q11.565 6.385 7.5 19.5-3.167 6.666-10.5 7.5-22.562 3.898-20.5-18.5 3.544-5.29 8.5-9m5 8q8.327.616 6.5 9-3.482 5.125-8 1-1.445-5.473 1.5-10"/><path style="opacity:.998" fill="#050506" d="M707.5 210.5q12.252-.825 24 2.5a7.9 7.9 0 0 1 1 3.5 240 240 0 0 0-3 15q-8.084-3.462-17-2.5-11.684 5.491-5 16.5a380 380 0 0 0 19 13.5q16.407 18.282 5.5 40.5-15.744 17.955-39.5 12.5l-8-2.5q-1.228-9.641 2-19 12.11 7.334 25 2a20 20 0 0 0 3.5-4 25.2 25.2 0 0 0 0-10l-24-20q-9.051-11.48-6-26 4.615-17.866 22.5-22m-708 99v-10a145 145 0 0 1 3-9q15.291 10.858 28.5-2 1.737-7.179-2.5-13a110 110 0 0 1-23.5-19 853 853 0 0 0-5.5-12v-10q6.933-24.137 32.5-24a39 39 0 0 1 15.5 2.5 4.94 4.94 0 0 1 1 2.5 158 158 0 0 0-3 15l-1.5 1q-11.477-6.31-22 1-4.275 9.88 4.5 16a506 506 0 0 1 17.5 12q12.788 17.083 5 37a57.2 57.2 0 0 1-8.5 9.5 47.7 47.7 0 0 1-12 5q-14.877 1.855-29-2.5"/><path style="opacity:.999" fill="#050506" d="M133.5 210.5a96.7 96.7 0 0 1 27 2.5q21.912 9.617 16.5 33.5-2.613 11.992-13.5 17.5a32.5 32.5 0 0 1 8.5 10.5 809 809 0 0 0 8.5 38q-10.882.47-21.5-1a222.5 222.5 0 0 1-6-31q-2.707-8.466-11.5-8 .25 19.506-.5 39a108.4 108.4 0 0 1-20.5 1v-100q6.864.093 13-2m8 17q15.173-1.644 15 13.5.375 15.375-15 15.5z"/><path style="opacity:.993" fill="#050506" d="M258.5 211.5a91 91 0 0 1 19 1 2085 2085 0 0 1 23.5 59q-.321-29.985-.5-60h18v101h-19a809 809 0 0 1-23.5-62q.641 30.956.5 62h-18z"/><path style="opacity:.999" fill="#050506" d="M346.5 210.5q16.802-1.187 32 5.5 14.304 9.339 16.5 26.5a111.6 111.6 0 0 1 0 36q-4.476 27.473-31.5 33.5-14.072 1.21-28-.5-1.5-49.49-1-99 6.35-.058 12-2m9 17q10.353-.95 15.5 8 8.898 25.509 0 51-3.302 5.302-8.5 8.5-3.465.745-7 .5z"/><path style="opacity:.997" fill="#050506" d="M436.5 210.5q13.176-.624 26 2a151 151 0 0 1-2.5 17 4.46 4.46 0 0 1-1.5 2q-23.778-8.5-32.5 15a98.6 98.6 0 0 0 0 34q4.404 14.673 19.5 15v-24h-10v-17h29a777 777 0 0 1-1 55.5q-58.33 14.35-61-45.5-1.406-25.881 16-44.5 8.085-6.79 18-9.5"/><path style="opacity:.998" fill="#050506" d="M559.5 210.5q16.052-1.281 31 4.5 12.756 8.511 12 24 .68 11.157-6.5 19.5a30.2 30.2 0 0 1-7.5 5.5 40 40 0 0 1 7.5 7.5 701 701 0 0 1 9.5 41q-10.882.47-21.5-1l-7.5-34q-3.187-5.907-10-5v40h-21v-100q7.304-.284 14-2m7 17q14.822-1.43 15 13.5.193 8.963-7 14a19 19 0 0 1-8 1.5z"/><path style="opacity:.992" fill="#050506" d="M627.5 210.5q18.738-1.505 35 7.5 9.159 9.068 12.5 21.5 5.568 25.947-3 51-8.571 18.172-28.5 21.5-13.572 1.208-27-.5-1.5-49.49-1-99 6.35-.058 12-2m8 17q13.43-.82 17.5 12 6.158 25.05-3 49-4.79 8.527-14.5 7z"/><path style="opacity:.998" fill="#050506" d="M833.5 210.5q20.162-3.545 31.5 13 15.121 34.338 3 70-13.568 27.895-42.5 16-12.288-9.556-15.5-25-5.652-26.272 2-52 6.029-15.778 21.5-22m5 18q6.784-.233 9.5 6 6.999 27.007 0 54-9.414 14.568-16-2-7.8-27.378 2-54 2.096-2.356 4.5-4m102-17h44v18h-23v22h22v17h-22v25q12.51-.25 25 .5 2 9 0 18-22.995.75-46 .5z"/><path style="opacity:.995" fill="#050506" d="M998.5 211.5c6.34-.166 12.68 0 19 .5a987 987 0 0 1 24.5 62.5c-.23-20.99-.4-41.99-.5-63h18v101a98.3 98.3 0 0 1-19.5-1 831 831 0 0 1-23-61c.34 20.651.51 41.318.5 62h-19z"/><path style="opacity:1" fill="#050506" d="M55.5 211.5h56v19h-18v82h-20v-82h-18z"/><path style="opacity:.998" fill="#050506" d="M204.5 211.5h25a18203 18203 0 0 1 19 101q-10.013.25-20-.5a167 167 0 0 1-4-22.5 73 73 0 0 0-17 1 275 275 0 0 0-5 21q-9.95 1.495-20 1 10.765-50.558 22-101m11 23q3.46 18.816 7 38a43.1 43.1 0 0 1-13 1 627 627 0 0 0 6-39"/><path style="opacity:.997" fill="#050506" d="M491.5 211.5h25a6194 6194 0 0 1 19 101h-20q-1.745-10.986-3.5-22a79.6 79.6 0 0 0-17.5-1l-4 23h-20a3642 3642 0 0 1 21-101m11 24q.926.166 1.5 1a1429 1429 0 0 1 5.5 37h-12a1478 1478 0 0 1 5-38"/><path style="opacity:1" fill="#050506" d="M746.5 211.5h21q-.25 20.006.5 40a1361 1361 0 0 0 16-39 130 130 0 0 1 22.5-1 380 380 0 0 1-22 44 1388 1388 0 0 1 23 56 133 133 0 0 1-23 1 931 931 0 0 0-13.5-40 19 19 0 0 0-3 5 612 612 0 0 0-.5 35h-21zm137 0h21v83h26v18h-47z"/><path style="opacity:.748" d="M682.5 341.5h8a334 334 0 0 0 11.5 34 692 692 0 0 1 13-33q3.699-1.915 7.5 0a2156 2156 0 0 1-17 41.5q-3.899 1.153-7.5-.5-7.751-21.01-15.5-42"/><path style="opacity:.819" d="M724.5 341.5h6v5h-6z"/><path style="opacity:.768" d="M754.5 341.5h6a43.1 43.1 0 0 0 1 13q12.812-7.748 19.5 6a64.2 64.2 0 0 1 0 16q-6.862 13.948-20 6-2.631 2.625-6.5 2zm11 17q10.447-.553 10 10 .571 8.916-8 11-9.909-4.995-6.5-16 1.537-3.28 4.5-5"/><path style="opacity:.814" d="M984.5 341.5h6v5h-6z"/><path style="opacity:.741" d="M795.5 351.5a61 61 0 0 1 11 .5q5.4 1.899 6.5 7.5.442 12.538 1.5 25-4.341.687-7.5-2-7.226 4.151-15.5 2.5-8.509-4.152-5.5-13.5a39 39 0 0 1 4.5-4.5 95.4 95.4 0 0 1 16-2.5q.394-6.855-6.5-6-4.953-.787-7.5 3.5a18.5 18.5 0 0 1-6 .5q.62-8.625 9-11m9 19q2.766 1.056 1.5 4-6.757 8.028-14.5 1.5 1.619-3.064 5-4 4.297-.274 8-1.5"/><path style="opacity:.715" d="M830.5 351.5q11.1-2.074 15.5 8 .75 12.49.5 25h-7q.25-11.011-.5-22-5.064-7.495-12-1-.75 11.489-.5 23h-7v-32q3.966-.51 7 2a174 174 0 0 0 4-3"/><path style="opacity:.75" d="M861.5 351.5q20.532-1.469 19 19h-22q2.116 11.4 13 7.5 3.35-4.36 9-3.5-.248 8.01-8 10.5-24.707 2.284-20.5-22.5 2.399-7.641 9.5-11m2 7q4.23-.378 8 1.5 2.305 1.665 2 4.5a57.2 57.2 0 0 1-15-1q2.072-3.073 5-5"/><path style="opacity:.766" d="M895.5 351.5q11.14-1.55 6 8-4.187-2.31-7.5 1a111.6 111.6 0 0 0-1.5 24h-6v-32q3.399-.538 5.5 2a30 30 0 0 1 3.5-3"/><path style="opacity:.761" d="M960.5 351.5q19.94-1.06 19 19-11.511-.25-23 .5 3.234 11.311 14 6.5 3.74-4.956 9-1.5-8.475 14.757-24 7-3.175-2.597-4.5-6.5-5.05-16.85 9.5-25m1 7q7.553-1.668 11 5a57.2 57.2 0 0 1-15 1q.236-4.227 4-6m45-7c13.3-.697 19.64 5.636 19 19-7.67-.166-15.34 0-23 .5q1.32 7.563 9 8.5c3.82-.85 7.15-2.517 10-5 1.82-.158 3.15.509 4 2q-1.845 7.099-9 8.5c-16.25 1.433-22.755-6.067-19.5-22.5 1.599-5.094 4.77-8.761 9.5-11m1 7c5.08-1.114 8.75.553 11 5q-7.5 2-15 0c.66-2.315 1.99-3.981 4-5"/><path style="opacity:.784" d="M1041.5 351.5c6.23-1.127 11.07.873 14.5 6 .5 8.994.67 17.994.5 27h-6c.17-7.008 0-14.008-.5-21q-2.835-7.802-10.5-3.5c-1.39 1.171-2.23 2.671-2.5 4.5-.5 6.658-.67 13.325-.5 20h-6v-32c2.64-.34 4.98.327 7 2 1.4-1.021 2.73-2.021 4-3"/><path style="opacity:.812" d="M724.5 352.5h6v32h-6z"/><path style="opacity:.733" d="M918.5 352.5a13.1 13.1 0 0 1 7 1 299 299 0 0 1 7.5 22 159.5 159.5 0 0 0 7.5-23h7a566 566 0 0 1-10.5 31q-5.09 2.662-8-2a1010 1010 0 0 1-10.5-29"/><path style="opacity:.787" d="M984.5 352.5h6q.25 20.006-.5 40-.77 3.032-3.5 4.5a41 41 0 0 1-9 .5 9.1 9.1 0 0 1 1-5q3.205-.87 5.5-3 .75-18.493.5-37"/></svg>